<svg width="30" height="28" viewBox="0 0 30 28" fill="none" xmlns="http://www.w3.org/2000/svg">
<path d="M28.4357 10.0446L19.6971 8.78326L15.7908 0.918019C15.6841 0.702674 15.5086 0.528347 15.2917 0.422383C14.7479 0.155765 14.0871 0.377947 13.8152 0.918019L9.90886 8.78326L1.17032 10.0446C0.929398 10.0787 0.709127 10.1915 0.540482 10.3625C0.3366 10.5706 0.224252 10.8506 0.228124 11.1409C0.231996 11.4313 0.351772 11.7082 0.561133 11.9109L6.88358 18.0329L5.38987 26.6774C5.35485 26.8785 5.37725 27.0854 5.45455 27.2744C5.53185 27.4635 5.66095 27.6273 5.82721 27.7473C5.99347 27.8672 6.19024 27.9384 6.3952 27.953C6.60017 27.9675 6.80512 27.9247 6.98684 27.8294L14.803 23.7481L22.6192 27.8294C22.8325 27.9422 23.0804 27.9798 23.3178 27.9388C23.9167 27.8362 24.3194 27.2722 24.2161 26.6774L22.7224 18.0329L29.0449 11.9109C29.2169 11.7434 29.3305 11.5246 29.3649 11.2854C29.4579 10.6872 29.038 10.1334 28.4357 10.0446Z" fill="#F9AE74"/>
</svg>
